<?xml version="1.0" encoding="UTF-8" standalone="yes"?><svg xmlns="http://www.w3.org/2000/svg" version="1.1" width="296" height="296" viewBox="0 0 296 296" shape-rendering="crispEdges"><path d="M0 0h296v296H0z" fill="#ffffff"/><path fill="#000000" d="M32 32h8v8h-8zM40 32h8v8h-8zM48 32h8v8h-8zM56 32h8v8h-8zM64 32h8v8h-8zM72 32h8v8h-8zM80 32h8v8h-8zM120 32h8v8h-8zM128 32h8v8h-8zM144 32h8v8h-8zM176 32h8v8h-8zM184 32h8v8h-8zM208 32h8v8h-8zM216 32h8v8h-8zM224 32h8v8h-8zM232 32h8v8h-8zM240 32h8v8h-8zM248 32h8v8h-8zM256 32h8v8h-8zM32 40h8v8h-8zM80 40h8v8h-8zM96 40h8v8h-8zM104 40h8v8h-8zM112 40h8v8h-8zM136 40h8v8h-8zM184 40h8v8h-8zM208 40h8v8h-8zM256 40h8v8h-8zM32 48h8v8h-8zM48 48h8v8h-8zM56 48h8v8h-8zM64 48h8v8h-8zM80 48h8v8h-8zM112 48h8v8h-8zM120 48h8v8h-8zM152 48h8v8h-8zM192 48h8v8h-8zM208 48h8v8h-8zM224 48h8v8h-8zM232 48h8v8h-8zM240 48h8v8h-8zM256 48h8v8h-8zM32 56h8v8h-8zM48 56h8v8h-8zM56 56h8v8h-8zM64 56h8v8h-8zM80 56h8v8h-8zM112 56h8v8h-8zM120 56h8v8h-8zM136 56h8v8h-8zM160 56h8v8h-8zM208 56h8v8h-8zM224 56h8v8h-8zM232 56h8v8h-8zM240 56h8v8h-8zM256 56h8v8h-8zM32 64h8v8h-8zM48 64h8v8h-8zM56 64h8v8h-8zM64 64h8v8h-8zM80 64h8v8h-8zM96 64h8v8h-8zM104 64h8v8h-8zM120 64h8v8h-8zM136 64h8v8h-8zM160 64h8v8h-8zM184 64h8v8h-8zM208 64h8v8h-8zM224 64h8v8h-8zM232 64h8v8h-8zM240 64h8v8h-8zM256 64h8v8h-8zM32 72h8v8h-8zM80 72h8v8h-8zM104 72h8v8h-8zM112 72h8v8h-8zM120 72h8v8h-8zM144 72h8v8h-8zM152 72h8v8h-8zM160 72h8v8h-8zM184 72h8v8h-8zM192 72h8v8h-8zM208 72h8v8h-8zM256 72h8v8h-8zM32 80h8v8h-8zM40 80h8v8h-8zM48 80h8v8h-8zM56 80h8v8h-8zM64 80h8v8h-8zM72 80h8v8h-8zM80 80h8v8h-8zM96 80h8v8h-8zM112 80h8v8h-8zM128 80h8v8h-8zM144 80h8v8h-8zM160 80h8v8h-8zM176 80h8v8h-8zM192 80h8v8h-8zM208 80h8v8h-8zM216 80h8v8h-8zM224 80h8v8h-8zM232 80h8v8h-8zM240 80h8v8h-8zM248 80h8v8h-8zM256 80h8v8h-8zM120 88h8v8h-8zM128 88h8v8h-8zM152 88h8v8h-8zM168 88h8v8h-8zM176 88h8v8h-8zM32 96h8v8h-8zM48 96h8v8h-8zM64 96h8v8h-8zM80 96h8v8h-8zM112 96h8v8h-8zM160 96h8v8h-8zM168 96h8v8h-8zM176 96h8v8h-8zM192 96h8v8h-8zM224 96h8v8h-8zM248 96h8v8h-8zM64 104h8v8h-8zM72 104h8v8h-8zM88 104h8v8h-8zM96 104h8v8h-8zM136 104h8v8h-8zM152 104h8v8h-8zM160 104h8v8h-8zM192 104h8v8h-8zM208 104h8v8h-8zM232 104h8v8h-8zM256 104h8v8h-8zM32 112h8v8h-8zM40 112h8v8h-8zM64 112h8v8h-8zM80 112h8v8h-8zM88 112h8v8h-8zM96 112h8v8h-8zM120 112h8v8h-8zM144 112h8v8h-8zM152 112h8v8h-8zM160 112h8v8h-8zM168 112h8v8h-8zM208 112h8v8h-8zM240 112h8v8h-8zM248 112h8v8h-8zM256 112h8v8h-8zM48 120h8v8h-8zM64 120h8v8h-8zM96 120h8v8h-8zM112 120h8v8h-8zM120 120h8v8h-8zM136 120h8v8h-8zM144 120h8v8h-8zM160 120h8v8h-8zM168 120h8v8h-8zM192 120h8v8h-8zM208 120h8v8h-8zM224 120h8v8h-8zM248 120h8v8h-8zM80 128h8v8h-8zM96 128h8v8h-8zM144 128h8v8h-8zM152 128h8v8h-8zM168 128h8v8h-8zM184 128h8v8h-8zM192 128h8v8h-8zM200 128h8v8h-8zM208 128h8v8h-8zM232 128h8v8h-8zM248 128h8v8h-8zM256 128h8v8h-8zM32 136h8v8h-8zM48 136h8v8h-8zM56 136h8v8h-8zM64 136h8v8h-8zM72 136h8v8h-8zM88 136h8v8h-8zM104 136h8v8h-8zM144 136h8v8h-8zM152 136h8v8h-8zM200 136h8v8h-8zM208 136h8v8h-8zM232 136h8v8h-8zM256 136h8v8h-8zM64 144h8v8h-8zM80 144h8v8h-8zM88 144h8v8h-8zM104 144h8v8h-8zM136 144h8v8h-8zM176 144h8v8h-8zM208 144h8v8h-8zM216 144h8v8h-8zM224 144h8v8h-8zM232 144h8v8h-8zM248 144h8v8h-8zM256 144h8v8h-8zM56 152h8v8h-8zM104 152h8v8h-8zM120 152h8v8h-8zM152 152h8v8h-8zM168 152h8v8h-8zM184 152h8v8h-8zM192 152h8v8h-8zM216 152h8v8h-8zM224 152h8v8h-8zM232 152h8v8h-8zM248 152h8v8h-8zM32 160h8v8h-8zM40 160h8v8h-8zM48 160h8v8h-8zM64 160h8v8h-8zM80 160h8v8h-8zM88 160h8v8h-8zM104 160h8v8h-8zM112 160h8v8h-8zM160 160h8v8h-8zM168 160h8v8h-8zM184 160h8v8h-8zM192 160h8v8h-8zM200 160h8v8h-8zM208 160h8v8h-8zM232 160h8v8h-8zM248 160h8v8h-8zM256 160h8v8h-8zM48 168h8v8h-8zM56 168h8v8h-8zM72 168h8v8h-8zM96 168h8v8h-8zM112 168h8v8h-8zM120 168h8v8h-8zM128 168h8v8h-8zM136 168h8v8h-8zM152 168h8v8h-8zM160 168h8v8h-8zM168 168h8v8h-8zM176 168h8v8h-8zM192 168h8v8h-8zM208 168h8v8h-8zM232 168h8v8h-8zM240 168h8v8h-8zM256 168h8v8h-8zM32 176h8v8h-8zM48 176h8v8h-8zM56 176h8v8h-8zM64 176h8v8h-8zM72 176h8v8h-8zM80 176h8v8h-8zM96 176h8v8h-8zM112 176h8v8h-8zM120 176h8v8h-8zM128 176h8v8h-8zM144 176h8v8h-8zM152 176h8v8h-8zM160 176h8v8h-8zM224 176h8v8h-8zM248 176h8v8h-8zM256 176h8v8h-8zM40 184h8v8h-8zM72 184h8v8h-8zM96 184h8v8h-8zM128 184h8v8h-8zM136 184h8v8h-8zM144 184h8v8h-8zM160 184h8v8h-8zM168 184h8v8h-8zM192 184h8v8h-8zM224 184h8v8h-8zM232 184h8v8h-8zM248 184h8v8h-8zM32 192h8v8h-8zM48 192h8v8h-8zM56 192h8v8h-8zM64 192h8v8h-8zM72 192h8v8h-8zM80 192h8v8h-8zM88 192h8v8h-8zM104 192h8v8h-8zM120 192h8v8h-8zM144 192h8v8h-8zM152 192h8v8h-8zM168 192h8v8h-8zM184 192h8v8h-8zM192 192h8v8h-8zM200 192h8v8h-8zM208 192h8v8h-8zM216 192h8v8h-8zM224 192h8v8h-8zM96 200h8v8h-8zM104 200h8v8h-8zM120 200h8v8h-8zM144 200h8v8h-8zM152 200h8v8h-8zM184 200h8v8h-8zM192 200h8v8h-8zM224 200h8v8h-8zM240 200h8v8h-8zM248 200h8v8h-8zM256 200h8v8h-8zM32 208h8v8h-8zM40 208h8v8h-8zM48 208h8v8h-8zM56 208h8v8h-8zM64 208h8v8h-8zM72 208h8v8h-8zM80 208h8v8h-8zM104 208h8v8h-8zM112 208h8v8h-8zM120 208h8v8h-8zM136 208h8v8h-8zM184 208h8v8h-8zM192 208h8v8h-8zM208 208h8v8h-8zM224 208h8v8h-8zM232 208h8v8h-8zM248 208h8v8h-8zM256 208h8v8h-8zM32 216h8v8h-8zM80 216h8v8h-8zM104 216h8v8h-8zM112 216h8v8h-8zM120 216h8v8h-8zM128 216h8v8h-8zM152 216h8v8h-8zM168 216h8v8h-8zM176 216h8v8h-8zM192 216h8v8h-8zM224 216h8v8h-8zM232 216h8v8h-8zM32 224h8v8h-8zM48 224h8v8h-8zM56 224h8v8h-8zM64 224h8v8h-8zM80 224h8v8h-8zM96 224h8v8h-8zM112 224h8v8h-8zM120 224h8v8h-8zM160 224h8v8h-8zM168 224h8v8h-8zM192 224h8v8h-8zM200 224h8v8h-8zM208 224h8v8h-8zM216 224h8v8h-8zM224 224h8v8h-8zM248 224h8v8h-8zM32 232h8v8h-8zM48 232h8v8h-8zM56 232h8v8h-8zM64 232h8v8h-8zM80 232h8v8h-8zM104 232h8v8h-8zM128 232h8v8h-8zM152 232h8v8h-8zM160 232h8v8h-8zM192 232h8v8h-8zM200 232h8v8h-8zM216 232h8v8h-8zM224 232h8v8h-8zM240 232h8v8h-8zM32 240h8v8h-8zM48 240h8v8h-8zM56 240h8v8h-8zM64 240h8v8h-8zM80 240h8v8h-8zM96 240h8v8h-8zM152 240h8v8h-8zM160 240h8v8h-8zM192 240h8v8h-8zM216 240h8v8h-8zM224 240h8v8h-8zM232 240h8v8h-8zM256 240h8v8h-8zM32 248h8v8h-8zM80 248h8v8h-8zM104 248h8v8h-8zM112 248h8v8h-8zM128 248h8v8h-8zM144 248h8v8h-8zM160 248h8v8h-8zM168 248h8v8h-8zM184 248h8v8h-8zM192 248h8v8h-8zM208 248h8v8h-8zM216 248h8v8h-8zM224 248h8v8h-8zM248 248h8v8h-8zM32 256h8v8h-8zM40 256h8v8h-8zM48 256h8v8h-8zM56 256h8v8h-8zM64 256h8v8h-8zM72 256h8v8h-8zM80 256h8v8h-8zM96 256h8v8h-8zM104 256h8v8h-8zM120 256h8v8h-8zM128 256h8v8h-8zM136 256h8v8h-8zM152 256h8v8h-8zM160 256h8v8h-8zM176 256h8v8h-8zM184 256h8v8h-8zM192 256h8v8h-8zM224 256h8v8h-8zM248 256h8v8h-8zM256 256h8v8h-8z"/></svg>
