<svg xmlns="http://www.w3.org/2000/svg" xmlns:xlink="http://www.w3.org/1999/xlink" version="1.1" class="marks" width="856" height="433" viewBox="0 0 856 433"><rect width="856" height="433" fill="white"/><g fill="none" stroke-miterlimit="10" transform="translate(51,5)"><g class="mark-group role-frame root" role="graphics-object" aria-roledescription="group mark container"><g transform="translate(0,0)"><path class="background" aria-hidden="true" d="M0.5,0.5h800v400h-800Z" stroke="#ddd"/><g><g class="mark-group role-axis" aria-hidden="true"><g transform="translate(0.5,0.5)"><path class="background" aria-hidden="true" d="M0,0h0v0h0Z" pointer-events="none"/><g><g class="mark-rule role-axis-grid" pointer-events="none"><line transform="translate(0,333)" x2="800" y2="0" stroke="#ddd" stroke-width="1" opacity="1"/><line transform="translate(0,200)" x2="800" y2="0" stroke="#ddd" stroke-width="1" opacity="1"/><line transform="translate(0,67)" x2="800" y2="0" stroke="#ddd" stroke-width="1" opacity="1"/></g></g><path class="foreground" aria-hidden="true" d="" pointer-events="none" display="none"/></g></g><g class="mark-group role-axis" role="graphics-symbol" aria-roledescription="axis" aria-label="X-axis for a discrete scale with 6 values: 1, 10, 100, 1000, 10000, 100000"><g transform="translate(0.5,400.5)"><path class="background" aria-hidden="true" d="M0,0h0v0h0Z" pointer-events="none"/><g><g class="mark-rule role-axis-tick" pointer-events="none"><line transform="translate(67,0)" x2="0" y2="5" stroke="#888" stroke-width="1" opacity="1"/><line transform="translate(200,0)" x2="0" y2="5" stroke="#888" stroke-width="1" opacity="1"/><line transform="translate(333,0)" x2="0" y2="5" stroke="#888" stroke-width="1" opacity="1"/><line transform="translate(467,0)" x2="0" y2="5" stroke="#888" stroke-width="1" opacity="1"/><line transform="translate(600,0)" x2="0" y2="5" stroke="#888" stroke-width="1" opacity="1"/><line transform="translate(733,0)" x2="0" y2="5" stroke="#888" stroke-width="1" opacity="1"/></g><g class="mark-text role-axis-label" pointer-events="none"><text text-anchor="middle" transform="translate(66.66666666666663,20)" font-family="monospace" font-size="16px" fill="#000" opacity="1">1</text><text text-anchor="middle" transform="translate(199.99999999999997,20)" font-family="monospace" font-size="16px" fill="#000" opacity="1">10</text><text text-anchor="middle" transform="translate(333.3333333333333,20)" font-family="monospace" font-size="16px" fill="#000" opacity="1">100</text><text text-anchor="middle" transform="translate(466.66666666666663,20)" font-family="monospace" font-size="16px" fill="#000" opacity="1">1000</text><text text-anchor="middle" transform="translate(600,20)" font-family="monospace" font-size="16px" fill="#000" opacity="1">10000</text><text text-anchor="middle" transform="translate(733.3333333333334,20)" font-family="monospace" font-size="16px" fill="#000" opacity="1">100000</text></g><g class="mark-rule role-axis-domain" pointer-events="none"><line transform="translate(0,0)" x2="800" y2="0" stroke="#888" stroke-width="1" opacity="1"/></g></g><path class="foreground" aria-hidden="true" d="" pointer-events="none" display="none"/></g></g><g class="mark-group role-axis" role="graphics-symbol" aria-roledescription="axis" aria-label="Y-axis for a linear scale with values from 0.85 to 1.15"><g transform="translate(0.5,0.5)"><path class="background" aria-hidden="true" d="M0,0h0v0h0Z" pointer-events="none"/><g><g class="mark-rule role-axis-tick" pointer-events="none"><line transform="translate(0,333)" x2="-5" y2="0" stroke="#888" stroke-width="1" opacity="1"/><line transform="translate(0,200)" x2="-5" y2="0" stroke="#888" stroke-width="1" opacity="1"/><line transform="translate(0,67)" x2="-5" y2="0" stroke="#888" stroke-width="1" opacity="1"/></g><g class="mark-text role-axis-label" pointer-events="none"><text text-anchor="end" transform="translate(-7,338.33333333333326)" font-family="monospace" font-size="16px" fill="#000" opacity="1">0.9n</text><text text-anchor="end" transform="translate(-7,204.99999999999991)" font-family="monospace" font-size="16px" fill="#000" opacity="1">1n</text><text text-anchor="end" transform="translate(-7,71.66666666666643)" font-family="monospace" font-size="16px" fill="#000" opacity="1">1.1n</text></g><g class="mark-rule role-axis-domain" pointer-events="none"><line transform="translate(0,400)" x2="0" y2="-400" stroke="#888" stroke-width="1" opacity="1"/></g></g><path class="foreground" aria-hidden="true" d="" pointer-events="none" display="none"/></g></g><g class="mark-symbol role-mark marks" clip-path="url(#clip3)" role="graphics-object" aria-roledescription="symbol mark container"><path aria-label="buf_size: 1; knuth_n: 1.6777216" role="graphics-symbol" aria-roledescription="circle" transform="translate(66.66666666666663,-703.6288000000004)" d="M4.472,0A4.472,4.472,0,1,1,-4.472,0A4.472,4.472,0,1,1,4.472,0" fill="black" stroke="black" stroke-width="2" opacity="0.5"/><path aria-label="buf_size: 1; knuth_n: 0.8830114" role="graphics-symbol" aria-roledescription="circle" transform="translate(66.66666666666663,355.98479999999995)" d="M4.472,0A4.472,4.472,0,1,1,-4.472,0A4.472,4.472,0,1,1,4.472,0" fill="black" stroke="black" stroke-width="2" opacity="0.5"/><path aria-label="buf_size: 1; knuth_n: 0.3106892" role="graphics-symbol" aria-roledescription="circle" transform="translate(66.66666666666663,1119.0810666666669)" d="M4.472,0A4.472,4.472,0,1,1,-4.472,0A4.472,4.472,0,1,1,4.472,0" fill="black" stroke="black" stroke-width="2" opacity="0.5"/><path aria-label="buf_size: 1; knuth_n: 0.19284156" role="graphics-symbol" aria-roledescription="circle" transform="translate(66.66666666666663,1276.2112533333334)" d="M4.472,0A4.472,4.472,0,1,1,-4.472,0A4.472,4.472,0,1,1,4.472,0" fill="black" stroke="black" stroke-width="2" opacity="0.5"/><path aria-label="buf_size: 1; knuth_n: 0.3355443" role="graphics-symbol" aria-roledescription="circle" transform="translate(66.66666666666663,1085.9409333333335)" d="M4.472,0A4.472,4.472,0,1,1,-4.472,0A4.472,4.472,0,1,1,4.472,0" fill="black" stroke="black" stroke-width="2" opacity="0.5"/><path aria-label="buf_size: 1; knuth_n: 5.5924055" role="graphics-symbol" aria-roledescription="circle" transform="translate(66.66666666666663,-5923.207333333336)" d="M4.472,0A4.472,4.472,0,1,1,-4.472,0A4.472,4.472,0,1,1,4.472,0" fill="black" stroke="black" stroke-width="2" opacity="0.5"/><path aria-label="buf_size: 1; knuth_n: 0.3647221" role="graphics-symbol" aria-roledescription="circle" transform="translate(66.66666666666663,1047.0372000000002)" d="M4.472,0A4.472,4.472,0,1,1,-4.472,0A4.472,4.472,0,1,1,4.472,0" fill="black" stroke="black" stroke-width="2" opacity="0.5"/><path aria-label="buf_size: 1; knuth_n: 0.79891506" role="graphics-symbol" aria-roledescription="circle" transform="translate(66.66666666666663,468.1132533333333)" d="M4.472,0A4.472,4.472,0,1,1,-4.472,0A4.472,4.472,0,1,1,4.472,0" fill="black" stroke="black" stroke-width="2" opacity="0.5"/><path aria-label="buf_size: 1; knuth_n: 0.6710886" role="graphics-symbol" aria-roledescription="circle" transform="translate(66.66666666666663,638.5485333333336)" d="M4.472,0A4.472,4.472,0,1,1,-4.472,0A4.472,4.472,0,1,1,4.472,0" fill="black" stroke="black" stroke-width="2" opacity="0.5"/><path aria-label="buf_size: 10; knuth_n: 0.38130038" role="graphics-symbol" aria-roledescription="circle" transform="translate(199.99999999999997,1024.9328266666669)" d="M4.472,0A4.472,4.472,0,1,1,-4.472,0A4.472,4.472,0,1,1,4.472,0" fill="black" stroke="black" stroke-width="2" opacity="0.5"/><path aria-label="buf_size: 10; knuth_n: 0.81840075" role="graphics-symbol" aria-roledescription="circle" transform="translate(199.99999999999997,442.13233333333324)" d="M4.472,0A4.472,4.472,0,1,1,-4.472,0A4.472,4.472,0,1,1,4.472,0" fill="black" stroke="black" stroke-width="2" opacity="0.5"/><path aria-label="buf_size: 10; knuth_n: 0.8516353" role="graphics-symbol" aria-roledescription="circle" transform="translate(199.99999999999997,397.8195999999998)" d="M4.472,0A4.472,4.472,0,1,1,-4.472,0A4.472,4.472,0,1,1,4.472,0" fill="black" stroke="black" stroke-width="2" opacity="0.5"/><path aria-label="buf_size: 10; knuth_n: 0.81442794" role="graphics-symbol" aria-roledescription="circle" transform="translate(199.99999999999997,447.42941333333334)" d="M4.472,0A4.472,4.472,0,1,1,-4.472,0A4.472,4.472,0,1,1,4.472,0" fill="black" stroke="black" stroke-width="2" opacity="0.5"/><path aria-label="buf_size: 10; knuth_n: 0.86480494" role="graphics-symbol" aria-roledescription="circle" transform="translate(199.99999999999997,380.26008)" d="M4.472,0A4.472,4.472,0,1,1,-4.472,0A4.472,4.472,0,1,1,4.472,0" fill="black" stroke="black" stroke-width="2" opacity="0.5"/><path aria-label="buf_size: 10; knuth_n: 0.4290848" role="graphics-symbol" aria-roledescription="circle" transform="translate(199.99999999999997,961.2202666666668)" d="M4.472,0A4.472,4.472,0,1,1,-4.472,0A4.472,4.472,0,1,1,4.472,0" fill="black" stroke="black" stroke-width="2" opacity="0.5"/><path aria-label="buf_size: 10; knuth_n: 1.3421773" role="graphics-symbol" aria-roledescription="circle" transform="translate(199.99999999999997,-256.23640000000034)" d="M4.472,0A4.472,4.472,0,1,1,-4.472,0A4.472,4.472,0,1,1,4.472,0" fill="black" stroke="black" stroke-width="2" opacity="0.5"/><path aria-label="buf_size: 10; knuth_n: 1.1259876" role="graphics-symbol" aria-roledescription="circle" transform="translate(199.99999999999997,32.016533333332966)" d="M4.472,0A4.472,4.472,0,1,1,-4.472,0A4.472,4.472,0,1,1,4.472,0" fill="black" stroke="black" stroke-width="2" opacity="0.5"/><path aria-label="buf_size: 10; knuth_n: 0.47934903" role="graphics-symbol" aria-roledescription="circle" transform="translate(199.99999999999997,894.2012933333334)" d="M4.472,0A4.472,4.472,0,1,1,-4.472,0A4.472,4.472,0,1,1,4.472,0" fill="black" stroke="black" stroke-width="2" opacity="0.5"/><path aria-label="buf_size: 10; knuth_n: 0.6307224" role="graphics-symbol" aria-roledescription="circle" transform="translate(199.99999999999997,692.3701333333333)" d="M4.472,0A4.472,4.472,0,1,1,-4.472,0A4.472,4.472,0,1,1,4.472,0" fill="black" stroke="black" stroke-width="2" opacity="0.5"/><path aria-label="buf_size: 100; knuth_n: 0.73875894" role="graphics-symbol" aria-roledescription="circle" transform="translate(333.3333333333333,548.3214133333333)" d="M4.472,0A4.472,4.472,0,1,1,-4.472,0A4.472,4.472,0,1,1,4.472,0" fill="black" stroke="black" stroke-width="2" opacity="0.5"/><path aria-label="buf_size: 100; knuth_n: 1.0979854" role="graphics-symbol" aria-roledescription="circle" transform="translate(333.3333333333333,69.35279999999989)" d="M4.472,0A4.472,4.472,0,1,1,-4.472,0A4.472,4.472,0,1,1,4.472,0" fill="black" stroke="black" stroke-width="2" opacity="0.5"/><path aria-label="buf_size: 100; knuth_n: 0.9388481" role="graphics-symbol" aria-roledescription="circle" transform="translate(333.3333333333333,281.53586666666666)" d="M4.472,0A4.472,4.472,0,1,1,-4.472,0A4.472,4.472,0,1,1,4.472,0" fill="black" stroke="black" stroke-width="2" opacity="0.5"/><path aria-label="buf_size: 100; knuth_n: 0.83302956" role="graphics-symbol" aria-roledescription="circle" transform="translate(333.3333333333333,422.6272533333332)" d="M4.472,0A4.472,4.472,0,1,1,-4.472,0A4.472,4.472,0,1,1,4.472,0" fill="black" stroke="black" stroke-width="2" opacity="0.5"/><path aria-label="buf_size: 100; knuth_n: 0.9510893" role="graphics-symbol" aria-roledescription="circle" transform="translate(333.3333333333333,265.21426666666656)" d="M4.472,0A4.472,4.472,0,1,1,-4.472,0A4.472,4.472,0,1,1,4.472,0" fill="black" stroke="black" stroke-width="2" opacity="0.5"/><path aria-label="buf_size: 100; knuth_n: 0.7390844" role="graphics-symbol" aria-roledescription="circle" transform="translate(333.3333333333333,547.8874666666667)" d="M4.472,0A4.472,4.472,0,1,1,-4.472,0A4.472,4.472,0,1,1,4.472,0" fill="black" stroke="black" stroke-width="2" opacity="0.5"/><path aria-label="buf_size: 100; knuth_n: 0.8176031" role="graphics-symbol" aria-roledescription="circle" transform="translate(333.3333333333333,443.1958666666666)" d="M4.472,0A4.472,4.472,0,1,1,-4.472,0A4.472,4.472,0,1,1,4.472,0" fill="black" stroke="black" stroke-width="2" opacity="0.5"/><path aria-label="buf_size: 100; knuth_n: 0.88721394" role="graphics-symbol" aria-roledescription="circle" transform="translate(333.3333333333333,350.3814133333333)" d="M4.472,0A4.472,4.472,0,1,1,-4.472,0A4.472,4.472,0,1,1,4.472,0" fill="black" stroke="black" stroke-width="2" opacity="0.5"/><path aria-label="buf_size: 100; knuth_n: 0.8525008" role="graphics-symbol" aria-roledescription="circle" transform="translate(333.3333333333333,396.6655999999999)" d="M4.472,0A4.472,4.472,0,1,1,-4.472,0A4.472,4.472,0,1,1,4.472,0" fill="black" stroke="black" stroke-width="2" opacity="0.5"/><path aria-label="buf_size: 100; knuth_n: 0.8188002" role="graphics-symbol" aria-roledescription="circle" transform="translate(333.3333333333333,441.59973333333335)" d="M4.472,0A4.472,4.472,0,1,1,-4.472,0A4.472,4.472,0,1,1,4.472,0" fill="black" stroke="black" stroke-width="2" opacity="0.5"/><path aria-label="buf_size: 1000; knuth_n: 0.8882474" role="graphics-symbol" aria-roledescription="circle" transform="translate(466.66666666666663,349.0034666666666)" d="M4.472,0A4.472,4.472,0,1,1,-4.472,0A4.472,4.472,0,1,1,4.472,0" fill="black" stroke="black" stroke-width="2" opacity="0.5"/><path aria-label="buf_size: 1000; knuth_n: 0.9313949" role="graphics-symbol" aria-roledescription="circle" transform="translate(466.66666666666663,291.4734666666666)" d="M4.472,0A4.472,4.472,0,1,1,-4.472,0A4.472,4.472,0,1,1,4.472,0" fill="black" stroke="black" stroke-width="2" opacity="0.5"/><path aria-label="buf_size: 1000; knuth_n: 0.94562144" role="graphics-symbol" aria-roledescription="circle" transform="translate(466.66666666666663,272.50474666666673)" d="M4.472,0A4.472,4.472,0,1,1,-4.472,0A4.472,4.472,0,1,1,4.472,0" fill="black" stroke="black" stroke-width="2" opacity="0.5"/><path aria-label="buf_size: 1000; knuth_n: 0.95963025" role="graphics-symbol" aria-roledescription="circle" transform="translate(466.66666666666663,253.82633333333322)" d="M4.472,0A4.472,4.472,0,1,1,-4.472,0A4.472,4.472,0,1,1,4.472,0" fill="black" stroke="black" stroke-width="2" opacity="0.5"/><path aria-label="buf_size: 1000; knuth_n: 0.967098" role="graphics-symbol" aria-roledescription="circle" transform="translate(466.66666666666663,243.86933333333323)" d="M4.472,0A4.472,4.472,0,1,1,-4.472,0A4.472,4.472,0,1,1,4.472,0" fill="black" stroke="black" stroke-width="2" opacity="0.5"/><path aria-label="buf_size: 1000; knuth_n: 1.02562756" role="graphics-symbol" aria-roledescription="circle" transform="translate(466.66666666666663,165.82991999999993)" d="M4.472,0A4.472,4.472,0,1,1,-4.472,0A4.472,4.472,0,1,1,4.472,0" fill="black" stroke="black" stroke-width="2" opacity="0.5"/><path aria-label="buf_size: 1000; knuth_n: 0.94968956" role="graphics-symbol" aria-roledescription="circle" transform="translate(466.66666666666663,267.08058666666653)" d="M4.472,0A4.472,4.472,0,1,1,-4.472,0A4.472,4.472,0,1,1,4.472,0" fill="black" stroke="black" stroke-width="2" opacity="0.5"/><path aria-label="buf_size: 1000; knuth_n: 0.9146386" role="graphics-symbol" aria-roledescription="circle" transform="translate(466.66666666666663,313.8152)" d="M4.472,0A4.472,4.472,0,1,1,-4.472,0A4.472,4.472,0,1,1,4.472,0" fill="black" stroke="black" stroke-width="2" opacity="0.5"/><path aria-label="buf_size: 1000; knuth_n: 0.98672094" role="graphics-symbol" aria-roledescription="circle" transform="translate(466.66666666666663,217.7054133333333)" d="M4.472,0A4.472,4.472,0,1,1,-4.472,0A4.472,4.472,0,1,1,4.472,0" fill="black" stroke="black" stroke-width="2" opacity="0.5"/><path aria-label="buf_size: 1000; knuth_n: 1.0352472" role="graphics-symbol" aria-roledescription="circle" transform="translate(466.66666666666663,153.00373333333334)" d="M4.472,0A4.472,4.472,0,1,1,-4.472,0A4.472,4.472,0,1,1,4.472,0" fill="black" stroke="black" stroke-width="2" opacity="0.5"/><path aria-label="buf_size: 10000; knuth_n: 0.99928025" role="graphics-symbol" aria-roledescription="circle" transform="translate(600,200.9596666666666)" d="M4.472,0A4.472,4.472,0,1,1,-4.472,0A4.472,4.472,0,1,1,4.472,0" fill="black" stroke="black" stroke-width="2" opacity="0.5"/><path aria-label="buf_size: 10000; knuth_n: 0.98072225" role="graphics-symbol" aria-roledescription="circle" transform="translate(600,225.70366666666658)" d="M4.472,0A4.472,4.472,0,1,1,-4.472,0A4.472,4.472,0,1,1,4.472,0" fill="black" stroke="black" stroke-width="2" opacity="0.5"/><path aria-label="buf_size: 10000; knuth_n: 1.0134719" role="graphics-symbol" aria-roledescription="circle" transform="translate(600,182.03746666666646)" d="M4.472,0A4.472,4.472,0,1,1,-4.472,0A4.472,4.472,0,1,1,4.472,0" fill="black" stroke="black" stroke-width="2" opacity="0.5"/><path aria-label="buf_size: 10000; knuth_n: 0.99967325" role="graphics-symbol" aria-roledescription="circle" transform="translate(600,200.43566666666663)" d="M4.472,0A4.472,4.472,0,1,1,-4.472,0A4.472,4.472,0,1,1,4.472,0" fill="black" stroke="black" stroke-width="2" opacity="0.5"/><path aria-label="buf_size: 10000; knuth_n: 0.99265244" role="graphics-symbol" aria-roledescription="circle" transform="translate(600,209.79674666666662)" d="M4.472,0A4.472,4.472,0,1,1,-4.472,0A4.472,4.472,0,1,1,4.472,0" fill="black" stroke="black" stroke-width="2" opacity="0.5"/><path aria-label="buf_size: 10000; knuth_n: 1.001577" role="graphics-symbol" aria-roledescription="circle" transform="translate(600,197.89733333333334)" d="M4.472,0A4.472,4.472,0,1,1,-4.472,0A4.472,4.472,0,1,1,4.472,0" fill="black" stroke="black" stroke-width="2" opacity="0.5"/><path aria-label="buf_size: 10000; knuth_n: 0.98877375" role="graphics-symbol" aria-roledescription="circle" transform="translate(600,214.96833333333325)" d="M4.472,0A4.472,4.472,0,1,1,-4.472,0A4.472,4.472,0,1,1,4.472,0" fill="black" stroke="black" stroke-width="2" opacity="0.5"/><path aria-label="buf_size: 10000; knuth_n: 0.97974294" role="graphics-symbol" aria-roledescription="circle" transform="translate(600,227.0094133333333)" d="M4.472,0A4.472,4.472,0,1,1,-4.472,0A4.472,4.472,0,1,1,4.472,0" fill="black" stroke="black" stroke-width="2" opacity="0.5"/><path aria-label="buf_size: 10000; knuth_n: 0.9886339" role="graphics-symbol" aria-roledescription="circle" transform="translate(600,215.15479999999982)" d="M4.472,0A4.472,4.472,0,1,1,-4.472,0A4.472,4.472,0,1,1,4.472,0" fill="black" stroke="black" stroke-width="2" opacity="0.5"/><path aria-label="buf_size: 10000; knuth_n: 0.973354" role="graphics-symbol" aria-roledescription="circle" transform="translate(600,235.52799999999988)" d="M4.472,0A4.472,4.472,0,1,1,-4.472,0A4.472,4.472,0,1,1,4.472,0" fill="black" stroke="black" stroke-width="2" opacity="0.5"/><path aria-label="buf_size: 100000; knuth_n: 0.9985713" role="graphics-symbol" aria-roledescription="circle" transform="translate(733.3333333333334,201.9049333333332)" d="M4.472,0A4.472,4.472,0,1,1,-4.472,0A4.472,4.472,0,1,1,4.472,0" fill="black" stroke="black" stroke-width="2" opacity="0.5"/><path aria-label="buf_size: 100000; knuth_n: 0.9997888" role="graphics-symbol" aria-roledescription="circle" transform="translate(733.3333333333334,200.28159999999988)" d="M4.472,0A4.472,4.472,0,1,1,-4.472,0A4.472,4.472,0,1,1,4.472,0" fill="black" stroke="black" stroke-width="2" opacity="0.5"/><path aria-label="buf_size: 100000; knuth_n: 0.9936136" role="graphics-symbol" aria-roledescription="circle" transform="translate(733.3333333333334,208.51519999999994)" d="M4.472,0A4.472,4.472,0,1,1,-4.472,0A4.472,4.472,0,1,1,4.472,0" fill="black" stroke="black" stroke-width="2" opacity="0.5"/><path aria-label="buf_size: 100000; knuth_n: 0.9916644" role="graphics-symbol" aria-roledescription="circle" transform="translate(733.3333333333334,211.11413333333326)" d="M4.472,0A4.472,4.472,0,1,1,-4.472,0A4.472,4.472,0,1,1,4.472,0" fill="black" stroke="black" stroke-width="2" opacity="0.5"/><path aria-label="buf_size: 100000; knuth_n: 1.0020107" role="graphics-symbol" aria-roledescription="circle" transform="translate(733.3333333333334,197.31906666666657)" d="M4.472,0A4.472,4.472,0,1,1,-4.472,0A4.472,4.472,0,1,1,4.472,0" fill="black" stroke="black" stroke-width="2" opacity="0.5"/><path aria-label="buf_size: 100000; knuth_n: 0.9959606" role="graphics-symbol" aria-roledescription="circle" transform="translate(733.3333333333334,205.38586666666663)" d="M4.472,0A4.472,4.472,0,1,1,-4.472,0A4.472,4.472,0,1,1,4.472,0" fill="black" stroke="black" stroke-width="2" opacity="0.5"/><path aria-label="buf_size: 100000; knuth_n: 0.9929838" role="graphics-symbol" aria-roledescription="circle" transform="translate(733.3333333333334,209.35493333333315)" d="M4.472,0A4.472,4.472,0,1,1,-4.472,0A4.472,4.472,0,1,1,4.472,0" fill="black" stroke="black" stroke-width="2" opacity="0.5"/><path aria-label="buf_size: 100000; knuth_n: 0.998156" role="graphics-symbol" aria-roledescription="circle" transform="translate(733.3333333333334,202.45866666666652)" d="M4.472,0A4.472,4.472,0,1,1,-4.472,0A4.472,4.472,0,1,1,4.472,0" fill="black" stroke="black" stroke-width="2" opacity="0.5"/><path aria-label="buf_size: 100000; knuth_n: 0.9948799" role="graphics-symbol" aria-roledescription="circle" transform="translate(733.3333333333334,206.82679999999988)" d="M4.472,0A4.472,4.472,0,1,1,-4.472,0A4.472,4.472,0,1,1,4.472,0" fill="black" stroke="black" stroke-width="2" opacity="0.5"/><path aria-label="buf_size: 100000; knuth_n: 0.99639894" role="graphics-symbol" aria-roledescription="circle" transform="translate(733.3333333333334,204.8014133333333)" d="M4.472,0A4.472,4.472,0,1,1,-4.472,0A4.472,4.472,0,1,1,4.472,0" fill="black" stroke="black" stroke-width="2" opacity="0.5"/></g></g><path class="foreground" aria-hidden="true" d="" display="none"/></g></g></g><defs><clipPath id="clip3"><rect x="0" y="0" width="800" height="400"/></clipPath></defs></svg>